<?xml version="1.0" encoding="utf-8"?>
<!-- Generator: Adobe Illustrator 21.1.0, SVG Export Plug-In . SVG Version: 6.00 Build 0)  -->
<svg version="1.1" id="Layer_1" xmlns="http://www.w3.org/2000/svg" xmlns:xlink="http://www.w3.org/1999/xlink" x="0px" y="0px"
	 viewBox="0 0 484.1 110" style="enable-background:new 0 0 484.1 110;" xml:space="preserve">
<style type="text/css">
	.st0{fill:#17102F;}
</style>
<g transform="translate(0.000000,110.000000) scale(0.100000,-0.100000)">
	<path class="st0" d="M2618.1,1073c2.4-16,21-82,39.5-148c50.8-175,52.4-192,13.7-118c-27.4,53-52.4,83-68.6,83
		c-10.5,0-3.2-40,30.7-169c32.3-123,51.6-226,64.5-351l4.8-45l-20.2,44c-29.8,64-62.9,112-100,146c-17.7,17-33.1,36-33.1,43
		s-2.4,11-6.5,9c-10.5-9-112.1,39-154.9,73c-64.5,51-169.4,89-169.4,60c0-5,23.4-26,52.4-47c40.3-29,52.4-42,52.4-60
		c0-28-0.8-28-40.3-3c-17.7,11-37.1,20-44.4,20c-6.5,0-12.1,6-12.1,14c0,21-16.1,30-26.6,17c-4.8-6-16.1-11-24.2-11
		c-10.5,0-13.7-5-10.5-16c3.2-10-4.8-32-19.4-57l-24.2-41v60c0,32,6.5,96,13.7,141c7.3,45,11.3,86,8.1,89c-10.5,13-43.6-36-65.3-95
		c-29-82-41.1-188-31.5-281c5.6-52,5.6-81,0-95c-8.1-18-9.7-17-15.3,15c-11.3,59-8.9,192,4.8,257c12.1,58,11.3,113-2.4,113
		c-23.4,0-70.2-104-82.3-183l-9.7-58l-35.5,83c-71.8,165-155.7,286-155.7,222c0-8,23.4-87,52.4-175c29-87,52.4-162,52.4-167
		c0-4-13.7,22-29.8,58c-38.7,86-89.5,170-105.7,177c-7.3,3-21.8,15-31.5,26c-16.9,18-34.7,17-34.7-4c0-5,27.4-94,60.5-197
		c51.6-163,100.8-350,100.8-389c0-8-10.5-13-24.2-13c-20.2,0-24.2,4-27.4,33c-2.4,17-8.1,63-12.9,100c-16.9,135-96,375-137.1,422
		c-13.7,16-16.1,16-21,2c-2.4-8,1.6-43,8.1-78c12.1-58,12.9-96,0.8-50c-2.4,12-12.9,26-21.8,32c-16.1,11-16.9,9-12.1-37
		c4-46,3.2-48-7.3-22c-9.7,24-8.9,36,12.9,125c12.9,54,29,116,35.5,138c40.3,136-29.8,73-94.4-84c-19.4-47-43.6-123-54-167
		c-10.5-45-25-92-33.9-105l-14.5-24l5.6,45c13.7,111-3.2,128-39.5,41l-22.6-53v34c0,94-62.9,263-86.3,234c-3.2-3,1.6-49,9.7-101
		c12.9-81,13.7-105,5.6-177c-4.8-46-13.7-103-20.2-128l-10.5-45l-6.5,110c-7.3,152-20.2,264-33.1,300c-6.5,17-15.3,49-20.2,72
		c-8.9,46-21,61-33.9,45c-4.8-6-12.9-56-18.6-112c-6.5-56-12.9-104-14.5-106c-1.6-3-5.6,20-8.1,50c-5.6,70-18.6,102-33.9,86
		c-6.5-7-13.7-28-16.1-49c-12.9-97-12.9-96-23.4-70c-16.9,41-26.6,32-32.3-30c-3.2-33-10.5-79-16.9-103c-6.5-24-9.7-32-7.3-18
		s6.5,66,8.9,115c3.2,69,0.8,99-8.9,129c-16.9,50-32.3,42-37.1-20c-2.4-27-9.7-59-16.1-70c-10.5-22-11.3-22-23.4,9
		c-7.3,16-16.1,30-21,29c-4-1-12.1-37-16.9-80c-8.9-79-26.6-155-52.4-226l-13.7-40l-4.8,35c-2.4,19-8.1,67-12.9,108
		c-16.1,140-74.2,313-134.7,400c-31.5,46-42.8,51-42.8,19c0-18-5.6-12-23.4,26c-46.8,98-105.7,167-105.7,123c0-7,14.5-67,32.3-132
		c17.7-65,32.3-122,32.3-125s-11.3,18-24.2,46c-13.7,29-38.7,72-56.5,95c-25,35-33.1,41-39.5,30c-4.8-9-3.2-29,3.2-55
		c59.7-222,92.8-390,92.8-466c0-21-4-17-23.4,25c-43.6,94-126.6,176-210.5,206c-20.2,7-47.6,23-60.5,36c-38.7,35-110.5,72-154.1,80
		c-36.3,6-38.7,5-28.2-10c5.6-9,31.5-31,56.5-49c51.6-36,133.9-134,160.5-191c16.1-34,12.9-32-33.9,26C173.9,552,99.6,605,38.3,619
		c-54,12-50.8-10,8.9-51c64.5-45,146.8-151,177.5-229c27.4-68,50-165,50-211c0-26-1.6-28-36.3-28h-36.3V50V0h2319.2h2319.2v50v50
		h-59.7h-60.5l-4.8,57c-3.2,32-10.5,90-16.1,128c-10.5,66-9.7,75,9.7,163c28.2,131,13.7,160-31.5,61l-17.7-39l-24.2,57
		c-25,58-53.2,82-53.2,46c0-10,7.3-69,15.3-131c13.7-106,14.5-116,1.6-175l-12.9-64l-14.5,72c-7.3,39-13.7,96-13.7,126
		c0,87-16.1,223-28.2,238c-16.9,21-25,7-36.3-61c-10.5-70-19.4-90-37.1-81c-8.1,4-11.3-4-12.1-33c-0.8-33-2.4-29-8.1,20
		c-8.9,76-18.6,91-44.4,70l-19.4-16l12.1,36c14.5,44,15.3,76,1.6,76c-8.9,0-35.5-39-81.5-120c-14.5-25-14.5-24-10.5,55
		c2.4,44,10.5,111,17.7,148c8.1,37,12.1,70,9.7,73c-10.5,14-38.7-21-61.3-76c-34.7-87-44.4-156-38.7-280c3.2-58,2.4-111-1.6-118
		c-21-43-32.3,167-13.7,256c17.7,86,16.9,135-0.8,130c-27.4-6-83.1-141-83.1-201c0-37-12.1-34-25,6c-26.6,81-137.1,277-156.5,277
		c-21,0-13.7-42,31.5-176c57.3-173,61.3-193,17.7-104c-19.4,42-37.9,92-41.1,113c-5.6,38-23.4,65-31.5,48c-2.4-5-12.1-7-21-4
		c-12.1,4-16.1,0-16.9-13c-0.8-11-4,3-7.3,30c-8.9,64-13.7,76-27.4,76c-11.3,0-29-54-29-88c0-7-4.8-23-11.3-35
		c-14.5-29-27.4-131-33.9-285c-3.2-68-8.9-118-12.1-110c-11.3,25-31.5,167-31.5,222c0,31,5.6,89,13.7,131c7.3,41,10.5,78,8.1,82
		c-9.7,12-40.3-32-59.7-86c-10.5-30-21.8-83-24.2-119l-4.8-65l-20.2,49c-19.4,48-30.7,64-45.2,64c-6.5,0-2.4-75,8.1-130
		c3.2-20,0-17-15.3,14c-11.3,21-22.6,54-25.8,72c-12.9,90-86.3,272-132.3,332c-38.7,49-42.8,20-12.9-89c43.6-156,51.6-203,39.5-230
		c-9.7-22-10.5-20-5.6,24c5.6,53-5.6,62-26.6,22c-7.3-14-14.5-24-16.1-23c-0.8,2,3.2,30,8.9,62c14.5,78,6.5,99-22.6,56
		c-50.8-74-117.8-299-134.7-452l-9.7-88h-26.6h-27.4l19.4,88c23.4,109,57.3,227,104.9,367c33.9,100,45.2,165,29.8,165
		c-10.5,0-37.1-38-79.9-117l-39.5-71l-9.7,30c-13.7,46-29,29-35.5-39c-5.6-65-21.8-148-26.6-141c-2.4,2,0.8,22,5.6,44
		c12.9,57,12.9,193-0.8,232c-16.9,50-30.7,40-37.1-28c-3.2-32-10.5-81-16.1-107c-9.7-44-10.5-46-11.3-15c-0.8,39-21,102-32.3,102
		c-4.8,0-9.7-15-12.1-32c-13.7-118-23.4-172-44.4-238l-22.6-75l-6.5,65c-8.9,94-38.7,235-67,311c-25.8,73-86.3,188-98.4,191
		c-4.8,0-12.9,1-17.7,2c-5.6,1-26.6,38-46.8,84c-43.6,99-99.2,182-122.6,182C2614.9,1100,2613.3,1096,2618.1,1073z M388.4,438
		c43.6-68,75-156,87.1-239c12.9-97,12.9-99-18.6-99h-26.6l-5.6,78c-8.1,116-31.5,211-71.8,285C327.1,511,353.8,492,388.4,438z
		 M2585.8,394c37.1-66,59.7-146,67.8-235l5.6-59h-25.8h-25.8l-5.6,68c-7.3,89-25,173-49.2,235c-22.6,59-22.6,60-8.9,55
		C2548.7,456,2568.1,427,2585.8,394z"/>
</g>
<rect x="53.1" y="55" class="st0" width="8" height="45"/>
</svg>
