<?xml version="1.0" encoding="utf-8"?>
<!-- Generator: Adobe Illustrator 21.1.0, SVG Export Plug-In . SVG Version: 6.00 Build 0)  -->
<svg version="1.1" id="Layer_1" xmlns="http://www.w3.org/2000/svg" xmlns:xlink="http://www.w3.org/1999/xlink" x="0px" y="0px"
	 viewBox="0 0 4800 6300" style="enable-background:new 0 0 4800 6300;" xml:space="preserve">
<style type="text/css">
	.st0{fill:none;enable-background:new    ;}
</style>
<image style="overflow:visible;" width="2715" height="2014" xlink:href="501AF12BF6EC171.png"  transform="matrix(0.1146 0 0 0.1113 832.4325 1335)">
</image>
<path class="st0" d="z"/>
<image style="overflow:visible;" width="849" height="315" xlink:href="501AF12BF6EC173.png"  transform="matrix(0.1146 0 0 0.1113 891.6819 1335.7789)">
</image>
<path class="st0" d="z"/>
<image style="overflow:visible;" width="2583" height="34" xlink:href="501AF12BF6EC176.png"  transform="matrix(0.1146 0 0 0.1113 847.6746 1525.0579)">
</image>
<path class="st0" d="z"/>
<image style="overflow:visible;" width="3199" height="939" xlink:href="501AF12BF6EC177.png"  transform="matrix(0.1146 0 0 0.1113 800 1376.5056)">
</image>
<path class="st0" d="z"/>
<image style="overflow:visible;" width="433" height="203" xlink:href="501AF12BF6EC172.png"  transform="matrix(0.1146 0 0 0.1113 839.767 1536.853)">
</image>
<path class="st0" d="z"/>
<image style="overflow:visible;" width="722" height="213" xlink:href="501AF12BF6EC17D.png"  transform="matrix(0.1146 0 0 0.1113 928.8132 1489.7837)">
</image>
<path class="st0" d="z"/>
<image style="overflow:visible;" width="510" height="271" xlink:href="501AF12BF6EC17E.png"  transform="matrix(0.1146 0 0 0.1113 833.8077 1478.7675)">
</image>
<path class="st0" d="z"/>
<image style="overflow:visible;" width="845" height="291" xlink:href="501AF12BF6EC17F.png"  transform="matrix(0.1146 0 0 0.1113 814.5545 1485.889)">
</image>
<path class="st0" d="z"/>
<image style="overflow:visible;" width="623" height="244" xlink:href="501AF12BF6EC174.png"  transform="matrix(0.1146 0 0 0.1113 1080.4323 1487.113)">
</image>
<path class="st0" d="z"/>
<image style="overflow:visible;" width="749" height="289" xlink:href="B93E4DB5AB01F56A.png"  transform="matrix(0.1146 0 0 0.1113 1076.1919 1486.2229)">
</image>
<path class="st0" d="z"/>
</svg>
